<?xml version="1.0" standalone="no"?>
<!DOCTYPE svg PUBLIC "-//W3C//DTD SVG 20010904//EN"
 "http://www.w3.org/TR/2001/REC-SVG-20010904/DTD/svg10.dtd">
<svg version="1.0" xmlns="http://www.w3.org/2000/svg"
 width="627.000000pt" height="627.000000pt" viewBox="0 0 627.000000 627.000000"
 preserveAspectRatio="xMidYMid meet">
<metadata>
Created by potrace 1.16, written by Peter Selinger 2001-2019
</metadata>
<g transform="translate(0.000000,627.000000) scale(0.100000,-0.100000)"
fill="#5f55d8" stroke="none">
<path d="M1618 4040 c-46 -14 -82 -40 -118 -88 l-35 -45 -3 -1141 c-2 -755 0
-1153 7 -1176 15 -49 67 -109 115 -131 49 -22 143 -25 190 -5 40 17 182 127
822 641 192 153 391 313 443 354 141 113 184 183 184 305 0 83 -28 152 -87
211 -41 42 -559 450 -1245 982 -128 100 -185 120 -273 93z"/>
<path d="M3177 3709 c-58 -30 -97 -99 -97 -168 1 -33 8 -69 18 -88 9 -17 127
-167 262 -333 306 -377 285 -350 274 -365 -9 -12 -119 -147 -378 -465 -81
-100 -154 -198 -162 -216 -52 -125 39 -264 174 -264 74 0 118 31 212 145 45
55 130 159 189 230 260 315 389 482 401 519 19 59 8 137 -26 190 -16 25 -112
145 -214 268 -102 122 -198 239 -215 259 -171 211 -227 274 -267 295 -39 20
-126 17 -171 -7z"/>
<path d="M3940 3711 c-19 -10 -48 -35 -64 -55 -41 -50 -49 -145 -18 -204 18
-35 168 -226 440 -560 50 -63 92 -118 92 -122 0 -5 -118 -156 -263 -337 -145
-181 -269 -344 -276 -361 -22 -52 -10 -143 23 -186 56 -75 162 -98 240 -53 22
12 73 63 113 112 41 50 147 179 236 289 89 109 199 244 245 300 108 132 125
165 126 242 0 81 -12 101 -174 296 -176 211 -282 340 -350 424 -125 154 -175
207 -206 220 -47 20 -123 18 -164 -5z"/>
<path d="M4695 3711 c-97 -59 -129 -175 -74 -269 16 -29 423 -540 501 -630 15
-18 28 -36 28 -40 0 -6 -127 -168 -208 -267 -15 -18 -71 -88 -268 -335 -60
-76 -69 -92 -78 -142 -20 -110 74 -218 188 -218 86 0 103 16 334 300 118 146
240 296 271 334 188 230 208 267 198 358 -8 65 -22 88 -139 229 -56 68 -132
160 -168 205 -242 300 -376 458 -403 475 -43 26 -140 26 -182 0z"/>
</g>
</svg>
